HIERARCHY
ROOT Hips
{
  OFFSET 5.80788e-005 67.184 3.4734
  CHANNELS 6 Xposition Yposition Zposition Zrotation Xrotation Yrotation
  JOINT Chest
  {
    OFFSET 0 8.7983 -4.7612
    CHANNELS 3 Zrotation Xrotation Yrotation
    JOINT Chest2
    {
      OFFSET 0 8.0291 0.4195
      CHANNELS 3 Zrotation Xrotation Yrotation
      JOINT Chest3
      {
        OFFSET 0 9.9351 -2.2114
        CHANNELS 3 Zrotation Xrotation Yrotation
        JOINT Neck
        {
          OFFSET 0 22.3885 -0.4656
          CHANNELS 3 Zrotation Xrotation Yrotation
          JOINT Head
          {
            OFFSET -0.0001 12.643 3.4389
            CHANNELS 3 Zrotation Xrotation Yrotation
            End Site
            {
              OFFSET 0.0001 17.6655 0.5274
            }
          }
        }
        JOINT LeftCollar
        {
          OFFSET 2.2603 21.606 7.4023
          CHANNELS 3 Zrotation Xrotation Yrotation
          JOINT LeftShoulder
          {
            OFFSET 13.5163 -1.1332 -5.0146
            CHANNELS 3 Zrotation Xrotation Yrotation
            JOINT LeftElbow
            {
              OFFSET -0.0995 -28.05 -0.2431
              CHANNELS 3 Zrotation Xrotation Yrotation
              JOINT LeftWrist
              {
                OFFSET 0.0679 -23.3996 -0.1402
                CHANNELS 3 Zrotation Xrotation Yrotation
                JOINT LeftFinger1
                {
                  OFFSET 0.7932 -9.069 2.5189
                  CHANNELS 3 Zrotation Xrotation Yrotation
                  JOINT LeftFinger11
                  {
                    OFFSET -0.8272 -3.3923 0.5977
                    CHANNELS 3 Zrotation Xrotation Yrotation
                    JOINT LeftFinger12
                    {
                      OFFSET -0.5649 -2.3158 0.4082
                      CHANNELS 3 Zrotation Xrotation Yrotation
                      End Site
                      {
                        OFFSET -0.4919 -1.6479 0.2673
                      }
                    }
                  }
                }
                JOINT LeftFinger2
                {
                  OFFSET 0.9159 -9.2044 0.2193
                  CHANNELS 3 Zrotation Xrotation Yrotation
                  JOINT LeftFinger21
                  {
                    OFFSET 0.0117 -4.1944 -0.0248
                    CHANNELS 3 Zrotation Xrotation Yrotation
                    JOINT LeftFinger22
                    {
                      OFFSET 0.0071 -2.3249 -0.0142
                      CHANNELS 3 Zrotation Xrotation Yrotation
                      End Site
                      {
                        OFFSET -0.1475 -2.0882 0.0028
                      }
                    }
                  }
                }
                JOINT LeftFinger3
                {
                  OFFSET 0.6113 -8.7231 -2.0637
                  CHANNELS 3 Zrotation Xrotation Yrotation
                  JOINT LeftFinger31
                  {
                    OFFSET -0.1927 -3.8059 -0.2383
                    CHANNELS 3 Zrotation Xrotation Yrotation
                    JOINT LeftFinger32
                    {
                      OFFSET -0.1091 -2.1688 -0.1362
                      CHANNELS 3 Zrotation Xrotation Yrotation
                      End Site
                      {
                        OFFSET -0.2358 -1.9176 -0.0906
                      }
                    }
                  }
                }
                JOINT LeftFinger4
                {
                  OFFSET -0.6151 -8.0947 -3.5641
                  CHANNELS 3 Zrotation Xrotation Yrotation
                  JOINT LeftFinger41
                  {
                    OFFSET -0.4882 -2.341 -0.6462
                    CHANNELS 3 Zrotation Xrotation Yrotation
                    JOINT LeftFinger42
                    {
                      OFFSET -0.3575 -1.7167 -0.4742
                      CHANNELS 3 Zrotation Xrotation Yrotation
                      End Site
                      {
                        OFFSET -0.4187 -1.5237 -0.3496
                      }
                    }
                  }
                }
                JOINT LeftFinger0
                {
                  OFFSET -1.42 -1.8761 1.4223
                  CHANNELS 3 Zrotation Xrotation Yrotation
                  JOINT LeftFinger01
                  {
                    OFFSET -1.1471 -3.4929 2.6334
                    CHANNELS 3 Zrotation Xrotation Yrotation
                    JOINT LeftFinger02
                    {
                      OFFSET -0.823 -2.3 1.6571
                      CHANNELS 3 Zrotation Xrotation Yrotation
                      End Site
                      {
                        OFFSET -0.5822 -1.6914 1.1582
                      }
                    }
                  }
                }
              }
            }
          }
        }
        JOINT RightCollar
        {
          OFFSET -2.2603 21.606 7.4023
          CHANNELS 3 Zrotation Xrotation Yrotation
          JOINT RightShoulder
          {
            OFFSET -13.5187 -1.1334 -5.0155
            CHANNELS 3 Zrotation Xrotation Yrotation
            JOINT RightElbow
            {
              OFFSET 0.0994 -28.0499 -0.2431
              CHANNELS 3 Zrotation Xrotation Yrotation
              JOINT RightWrist
              {
                OFFSET -0.0679 -23.3996 -0.1402
                CHANNELS 3 Zrotation Xrotation Yrotation
                JOINT RightFinger1
                {
                  OFFSET -0.7932 -9.0691 2.5189
                  CHANNELS 3 Zrotation Xrotation Yrotation
                  JOINT RightFinger11
                  {
                    OFFSET 0.8272 -3.3923 0.5977
                    CHANNELS 3 Zrotation Xrotation Yrotation
                    JOINT RightFinger12
                    {
                      OFFSET 0.565 -2.3158 0.4082
                      CHANNELS 3 Zrotation Xrotation Yrotation
                      End Site
                      {
                        OFFSET 0.4919 -1.6479 0.2673
                      }
                    }
                  }
                }
                JOINT RightFinger2
                {
                  OFFSET -0.916 -9.2044 0.2193
                  CHANNELS 3 Zrotation Xrotation Yrotation
                  JOINT RightFinger21
                  {
                    OFFSET -0.0117 -4.1944 -0.0248
                    CHANNELS 3 Zrotation Xrotation Yrotation
                    JOINT RightFinger22
                    {
                      OFFSET -0.0071 -2.3249 -0.0142
                      CHANNELS 3 Zrotation Xrotation Yrotation
                      End Site
                      {
                        OFFSET 0.1475 -2.0882 0.0028
                      }
                    }
                  }
                }
                JOINT RightFinger3
                {
                  OFFSET -0.6113 -8.7231 -2.0637
                  CHANNELS 3 Zrotation Xrotation Yrotation
                  JOINT RightFinger31
                  {
                    OFFSET 0.1927 -3.8059 -0.2383
                    CHANNELS 3 Zrotation Xrotation Yrotation
                    JOINT RightFinger32
                    {
                      OFFSET 0.1091 -2.1688 -0.1362
                      CHANNELS 3 Zrotation Xrotation Yrotation
                      End Site
                      {
                        OFFSET 0.2358 -1.9176 -0.0906
                      }
                    }
                  }
                }
                JOINT RightFinger4
                {
                  OFFSET 0.6151 -8.0947 -3.564
                  CHANNELS 3 Zrotation Xrotation Yrotation
                  JOINT RightFinger41
                  {
                    OFFSET 0.4882 -2.341 -0.6462
                    CHANNELS 3 Zrotation Xrotation Yrotation
                    JOINT RightFinger42
                    {
                      OFFSET 0.3574 -1.7166 -0.4742
                      CHANNELS 3 Zrotation Xrotation Yrotation
                      End Site
                      {
                        OFFSET 0.4187 -1.5237 -0.3496
                      }
                    }
                  }
                }
                JOINT RightFinger0
                {
                  OFFSET 1.4199 -1.8761 1.4221
                  CHANNELS 3 Zrotation Xrotation Yrotation
                  JOINT RightFinger01
                  {
                    OFFSET 1.1472 -3.4929 2.6336
                    CHANNELS 3 Zrotation Xrotation Yrotation
                    JOINT RightFinger02
                    {
                      OFFSET 0.8229 -2.3 1.6571
                      CHANNELS 3 Zrotation Xrotation Yrotation
                      End Site
                      {
                        OFFSET 0.5822 -1.6914 1.1582
                      }
                    }
                  }
                }
              }
            }
          }
        }
      }
    }
  }
  JOINT RightHip
  {
    OFFSET -9.412 3.9771 -0.7758
    CHANNELS 3 Zrotation Xrotation Yrotation
    JOINT RightKnee
    {
      OFFSET -0.7531 -40.938 0
      CHANNELS 3 Zrotation Xrotation Yrotation
      JOINT RightAnkle
      {
        OFFSET 0 -40.1986 0
        CHANNELS 3 Zrotation Xrotation Yrotation
        JOINT RightToe
        {
          OFFSET 0 -4.4182 9.239
          CHANNELS 3 Zrotation Xrotation Yrotation
          End Site
          {
            OFFSET 0 0 6.1981
          }
        }
      }
    }
  }
  JOINT LeftHip
  {
    OFFSET 9.4119 3.9773 -0.7758
    CHANNELS 3 Zrotation Xrotation Yrotation
    JOINT LeftKnee
    {
      OFFSET 0.7532 -40.9383 0
      CHANNELS 3 Zrotation Xrotation Yrotation
      JOINT LeftAnkle
      {
        OFFSET 0 -40.1986 0
        CHANNELS 3 Zrotation Xrotation Yrotation
        JOINT LeftToe
        {
          OFFSET 0 -4.4182 9.239
          CHANNELS 3 Zrotation Xrotation Yrotation
          End Site
          {
            OFFSET 0 0 6.1981
          }
        }
      }
    }
  }
}
MOTION
Frames:	4
Frame Time:	0.0333333
25.6137 4.13488 -43.6576 89.9846 76.9891 -180 2.23363 -0.215642 -0.330345 4.46606 -0.444072 -0.652096 4.46607 -0.444074 -0.652116 -0.0118225 13.5885 -1.72535e-005 -0.0395682 -5.55573 -0.00420783 -15.2948 -7.89255 -50.5082 42.4755 -9.05699 33.8632 40.0539 -65.4437 35.7648 1.7648 -2.0369 -1.04589 3.72751e-007 -3.01308e-006 1.26387e-007 1.77481e-006 -2.54826e-006 8.45321e-007 -3.72752e-007 1.64529e-006 -1.26387e-007 3.72751e-007 -3.01308e-006 1.26387e-007 -0.0128068 0.00232618 8.1206e-005 5.24033e-007 -1.53144e-006 1.48193e-006 3.72751e-007 -3.01308e-006 1.26387e-007 -0.0160493 0.00299811 0.000860216 1.0994e-006 -4.40416e-006 -1.99206e-006 3.72751e-007 -3.01308e-006 1.26387e-007 -0.0125976 0.00312173 0.00283019 1.09936e-006 -4.72173e-006 -1.99209e-006 3.72751e-007 -3.01308e-006 1.26387e-007 1.77481e-006 -2.54826e-006 8.45321e-007 -3.72752e-007 1.64529e-006 -1.26387e-007 -23.9547 -15.3353 32.0093 -63.1904 -28.7294 -32.3186 -89.4889 -66.4245 -140.622 39.0963 15.6182 18.4148 -1.76556e-031 -3.18055e-015 -3.18055e-015 -3.18055e-015 -6.36111e-015 -0 -3.18055e-015 0 -0 -1.76556e-031 -3.18055e-015 -3.18055e-015 0.0129493 0.00231061 -8.24947e-005 -6.36111e-015 1.59028e-015 -0 -1.76556e-031 -3.18055e-015 -3.18055e-015 0.0163335 0.0030269 -0.000862555 3.18055e-015 -1.59028e-015 -3.18055e-015 -1.76556e-031 -3.18055e-015 -3.18055e-015 0.0145716 0.0036713 -0.00326059 -8.82781e-032 -1.59028e-015 -3.18055e-015 -1.76556e-031 -3.18055e-015 -3.18055e-015 -3.18055e-015 -6.36111e-015 -0 -3.18055e-015 0 -0 13.9718 -24.5241 5.29253 5.27289 22.2773 -25.1259 -5.08364 31.5834 1.69828 9.14279e-006 -2.30216e-006 -7.97884e-006 -11.9232 -72.4728 -8.07813 4.2804 44.4307 -1.92782 4.97883 4.28975 1.16824 -9.655e-006 3.00734e-006 -5.07904e-006 
25.6147 4.1346 -43.7584 89.9846 76.9891 -180 2.23316 -0.274982 -0.322645 4.46478 -0.562296 -0.634348 4.46482 -0.562286 -0.634356 -0.0118318 14.3837 -1.23879e-005 -0.0394967 -4.18249 -0.00450576 -15.4072 -7.70461 -50.8047 42.7031 -8.86331 33.9453 40.0308 -65.2574 35.7522 1.67429 -1.93062 -0.993258 7.95139e-016 3.18055e-015 -0 -1.59028e-015 -3.18055e-015 3.18055e-015 2.38542e-015 3.18055e-015 -0 7.95139e-016 3.18055e-015 -0 -0.0128078 0.00231329 9.02176e-005 -7.22252e-006 3.82264e-007 4.1579e-006 7.95139e-016 3.18055e-015 -0 -0.0160377 0.00299478 0.000854688 3.18055e-015 3.18055e-015 -0 7.95139e-016 3.18055e-015 -0 -0.0125755 0.00311918 0.00282997 -1.0046e-005 -5.08329e-006 3.48418e-007 7.95139e-016 3.18055e-015 -0 -1.59028e-015 -3.18055e-015 3.18055e-015 2.38542e-015 3.18055e-015 -0 -23.9222 -15.1384 32.3862 -63.4163 -28.533 -32.4761 -88.7513 -66.2862 -139.966 39.2116 15.6679 18.373 3.18055e-015 -6.36111e-015 3.18055e-015 6.36111e-015 -1.59028e-015 3.18055e-015 1.27222e-014 -3.18055e-015 -0 3.18055e-015 -6.36111e-015 3.18055e-015 0.0129601 0.00231434 -9.48728e-005 6.36111e-015 6.36111e-015 -3.18055e-015 3.18055e-015 -6.36111e-015 3.18055e-015 0.0163468 0.00304343 -0.000869629 -0 -4.77083e-015 -0 3.18055e-015 -6.36111e-015 3.18055e-015 0.0145963 0.00367508 -0.00326732 6.36111e-015 -3.18055e-015 -3.18055e-015 3.18055e-015 -6.36111e-015 3.18055e-015 6.36111e-015 -1.59028e-015 3.18055e-015 1.27222e-014 -3.18055e-015 -0 14.0037 -24.787 5.27578 5.30784 22.8491 -25.1304 -4.98442 31.33 1.66183 1.93717e-005 5.98858e-007 3.45429e-006 -11.9202 -72.4666 -8.06858 4.36455 44.6577 -1.98519 4.97563 4.28257 1.17293 3.53844e-006 5.9967e-006 -4.97198e-007 
25.6155 4.13435 -43.8487 89.9846 76.9891 -180 2.23272 -0.327936 -0.315738 4.46372 -0.667908 -0.618472 4.46371 -0.667894 -0.618475 -0.0118808 15.0972 -4.10979e-006 -0.0393988 -2.94841 -0.00479646 -15.5071 -7.53549 -51.0702 42.9055 -8.68864 34.018 40.0131 -65.0919 35.7433 1.59333 -1.83577 -0.946108 -1.04725e-006 3.06063e-006 -2.96398e-006 1.0212e-005 1.35104e-006 3.37894e-006 -9.74096e-006 -1.64414e-006 3.05881e-006 -1.04725e-006 3.06063e-006 -2.96398e-006 -0.0128177 0.00232508 9.05196e-005 -3.18055e-015 -3.18055e-015 -0 -1.04725e-006 3.06063e-006 -2.96398e-006 -0.0160379 0.00299364 0.000862846 -3.97569e-015 -6.36111e-015 -3.18055e-015 -1.04725e-006 3.06063e-006 -2.96398e-006 -0.0125974 0.00312437 0.00283611 -3.97569e-015 0 -0 -1.04725e-006 3.06063e-006 -2.96398e-006 1.0212e-005 1.35104e-006 3.37894e-006 -9.74096e-006 -1.64414e-006 3.05881e-006 -23.8941 -14.9616 32.7239 -63.618 -28.3564 -32.6163 -88.097 -66.1593 -139.385 39.3147 15.7122 18.3356 4.51697e-006 -3.86926e-006 2.105e-007 -1.50566e-006 -2.27473e-006 -7.01666e-008 -2.87869e-006 -3.76409e-006 -1.62569e-006 4.51697e-006 -3.86926e-006 2.105e-007 0.0129701 0.00233302 -0.000107629 -3.23539e-006 -4.33276e-006 1.06626e-005 4.51697e-006 -3.86926e-006 2.105e-007 0.016338 0.00303285 -0.000891832 -1.59542e-006 -6.68885e-006 9.24727e-006 4.51697e-006 -3.86926e-006 2.105e-007 0.0146106 0.00367715 -0.00329051 2.60939e-006 -5.14398e-006 1.70869e-005 4.51697e-006 -3.86926e-006 2.105e-007 -1.50566e-006 -2.27473e-006 -7.01666e-008 -2.87869e-006 -3.76409e-006 -1.62569e-006 14.0324 -25.0215 5.26095 5.33914 23.3619 -25.1345 -4.89628 31.1035 1.62982 9.11573e-006 3.10212e-006 -1.10865e-005 -11.9585 -72.4908 -8.09957 4.45006 44.8914 -2.03962 4.97282 4.27623 1.1771 2.09472e-005 6.01112e-006 -1.04847e-005 
25.6164 4.13409 -43.939 89.9846 76.9891 180 2.23226 -0.380886 -0.308834 4.46259 -0.773538 -0.602582 4.4626 -0.773508 -0.602611 -0.0118227 15.8112 -9.21498e-006 -0.0392661 -1.71217 -0.00400839 -15.6062 -7.36588 -51.3353 43.1097 -8.51487 34.0904 39.9916 -64.9248 35.7313 1.51231 -1.74098 -0.898853 1.19271e-014 9.54166e-015 -1.59028e-014 1.03368e-014 9.54166e-015 -1.59028e-014 1.62357e-006 -4.56254e-006 -5.09637e-007 1.19271e-014 9.54166e-015 -1.59028e-014 -0.0128459 0.00232069 8.51734e-005 7.95139e-016 -1.37239e-006 3.18055e-015 1.19271e-014 9.54166e-015 -1.59028e-014 -0.016043 0.00298662 0.000861441 5.2309e-007 -1.5324e-006 1.48205e-006 1.19271e-014 9.54166e-015 -1.59028e-014 -0.0125615 0.00311238 0.00282328 -3.06927e-007 1.34043e-006 -2.71152e-006 1.19271e-014 9.54166e-015 -1.59028e-014 1.03368e-014 9.54166e-015 -1.59028e-014 1.62357e-006 -4.56254e-006 -5.09637e-007 -23.8671 -14.7847 33.0612 -63.8188 -28.1793 -32.7555 -87.4492 -66.0296 -138.811 39.4178 15.7564 18.298 3.86566e-006 -2.01791e-006 1.25289e-005 1.27222e-014 -4.77083e-015 -6.36111e-015 1.27222e-014 -7.95139e-015 -6.36111e-015 3.86566e-006 -2.01791e-006 1.25289e-005 0.0129453 0.00231902 -9.41382e-005 -9.54166e-015 -6.36111e-015 -9.54166e-015 3.86566e-006 -2.01791e-006 1.25289e-005 0.0163336 0.00303388 -0.000876666 -9.54166e-015 -9.54166e-015 -3.18055e-015 3.86566e-006 -2.01791e-006 1.25289e-005 0.0145914 0.00368312 -0.00327021 -6.36111e-015 0 -1.27222e-014 3.86566e-006 -2.01791e-006 1.25289e-005 1.27222e-014 -4.77083e-015 -6.36111e-015 1.27222e-014 -7.95139e-015 -6.36111e-015 14.0573 -25.2557 5.24516 5.37797 23.8736 -25.142 -4.81237 30.8763 1.59916 -9.07584e-006 2.52943e-006 -1.01986e-005 -11.9559 -72.4853 -8.09099 4.52633 45.094 -2.09209 4.97 4.26992 1.18128 -7.78652e-006 -5.79586e-006 4.88564e-006 
